{
    "asset" : {
        "generator" : "Khronos glTF Blender I/O v3.2.43",
        "version" : "2.0"
    },
    "scene" : 0,
    "scenes" : [
        {
            "name" : "Scene",
            "nodes" : [
                0
            ]
        }
    ],
    "nodes" : [
        {
            "mesh" : 0,
            "name" : "Cube",
            "scale" : [
                2.2725141048431396,
                3.4703776836395264,
                3.3037850856781006
            ],
            "translation" : [
                0,
                0,
                -0.18509572744369507
            ]
        }
    ],
    "materials" : [
        {
            "doubleSided" : true,
            "name" : "Metall_MAT",
            "pbrMetallicRoughness" : {
                "baseColorFactor" : [
                    0.9848847389221191,
                    0.9848847389221191,
                    0.9848847389221191,
                    1
                ],
                "roughnessFactor" : 0.5
            }
        },
        {
            "doubleSided" : true,
            "name" : "Black_MAT",
            "pbrMetallicRoughness" : {
                "baseColorFactor" : [
                    0,
                    0,
                    0,
                    1
                ],
                "metallicFactor" : 0
            }
        }
    ],
    "meshes" : [
        {
            "name" : "Cube",
            "primitives" : [
                {
                    "attributes" : {
                        "POSITION" : 0,
                        "NORMAL" : 1,
                        "TEXCOORD_0" : 2
                    },
                    "indices" : 3,
                    "material" : 0
                },
                {
                    "attributes" : {
                        "POSITION" : 4,
                        "NORMAL" : 5,
                        "TEXCOORD_0" : 6
                    },
                    "indices" : 7,
                    "material" : 1
                }
            ]
        }
    ],
    "accessors" : [
        {
            "bufferView" : 0,
            "componentType" : 5126,
            "count" : 1972,
            "max" : [
                1.293179988861084,
                1.1174315214157104,
                1
            ],
            "min" : [
                -1.000014305114746,
                -1,
                -1
            ],
            "type" : "VEC3"
        },
        {
            "bufferView" : 1,
            "componentType" : 5126,
            "count" : 1972,
            "type" : "VEC3"
        },
        {
            "bufferView" : 2,
            "componentType" : 5126,
            "count" : 1972,
            "type" : "VEC2"
        },
        {
            "bufferView" : 3,
            "componentType" : 5123,
            "count" : 4554,
            "type" : "SCALAR"
        },
        {
            "bufferView" : 4,
            "componentType" : 5126,
            "count" : 1805,
            "max" : [
                1.293179988861084,
                1.1174315214157104,
                1
            ],
            "min" : [
                -1,
                -1.0665783882141113,
                -1
            ],
            "type" : "VEC3"
        },
        {
            "bufferView" : 5,
            "componentType" : 5126,
            "count" : 1805,
            "type" : "VEC3"
        },
        {
            "bufferView" : 6,
            "componentType" : 5126,
            "count" : 1805,
            "type" : "VEC2"
        },
        {
            "bufferView" : 7,
            "componentType" : 5123,
            "count" : 5373,
            "type" : "SCALAR"
        }
    ],
    "bufferViews" : [
        {
            "buffer" : 0,
            "byteLength" : 23664,
            "byteOffset" : 0
        },
        {
            "buffer" : 0,
            "byteLength" : 23664,
            "byteOffset" : 23664
        },
        {
            "buffer" : 0,
            "byteLength" : 15776,
            "byteOffset" : 47328
        },
        {
            "buffer" : 0,
            "byteLength" : 9108,
            "byteOffset" : 63104
        },
        {
            "buffer" : 0,
            "byteLength" : 21660,
            "byteOffset" : 72212
        },
        {
            "buffer" : 0,
            "byteLength" : 21660,
            "byteOffset" : 93872
        },
        {
            "buffer" : 0,
            "byteLength" : 14440,
            "byteOffset" : 115532
        },
        {
            "buffer" : 0,
            "byteLength" : 10746,
            "byteOffset" : 129972
        }
    ],
    "buffers" : [
        {
            "byteLength" : 140720,
            "uri" : "memmert_test.bin"
        }
    ]
}
