{
    "asset" : {
        "generator" : "Khronos glTF Blender I/O v3.2.43",
        "version" : "2.0"
    },
    "scene" : 0,
    "scenes" : [
        {
            "name" : "Scene",
            "nodes" : [
                0
            ]
        }
    ],
    "nodes" : [
        {
            "mesh" : 0,
            "name" : "Cube_Open",
            "scale" : [
                1,
                1,
                1.0248676538467407
            ],
            "translation" : [
                1.7718243598937988,
                -1.6704998016357422,
                -0.2116313874721527
            ]
        }
    ],
    "materials" : [
        {
            "doubleSided" : true,
            "name" : "Chrom_MAT",
            "pbrMetallicRoughness" : {
                "baseColorFactor" : [
                    0.800000011920929,
                    0.800000011920929,
                    0.800000011920929,
                    1
                ],
                "roughnessFactor" : 0.22440943121910095
            }
        },
        {
            "doubleSided" : true,
            "name" : "Metall_MAT",
            "pbrMetallicRoughness" : {
                "baseColorFactor" : [
                    0.9848847389221191,
                    0.9848847389221191,
                    0.9848847389221191,
                    1
                ],
                "roughnessFactor" : 0.5
            }
        },
        {
            "doubleSided" : true,
            "name" : "Black_MAT",
            "pbrMetallicRoughness" : {
                "baseColorFactor" : [
                    0,
                    0,
                    0,
                    1
                ],
                "metallicFactor" : 0
            }
        }
    ],
    "meshes" : [
        {
            "name" : "Cube.005",
            "primitives" : [
                {
                    "attributes" : {
                        "POSITION" : 0,
                        "NORMAL" : 1,
                        "TEXCOORD_0" : 2
                    },
                    "indices" : 3,
                    "material" : 0
                },
                {
                    "attributes" : {
                        "POSITION" : 4,
                        "NORMAL" : 5,
                        "TEXCOORD_0" : 6
                    },
                    "indices" : 7,
                    "material" : 1
                },
                {
                    "attributes" : {
                        "POSITION" : 8,
                        "NORMAL" : 9,
                        "TEXCOORD_0" : 10
                    },
                    "indices" : 11,
                    "material" : 2
                }
            ]
        }
    ],
    "accessors" : [
        {
            "bufferView" : 0,
            "componentType" : 5126,
            "count" : 168770,
            "max" : [
                0.18543164432048798,
                3.3828654289245605,
                2.61122727394104
            ],
            "min" : [
                -2.8521575927734375,
                -1.0856379270553589,
                -2.56722354888916
            ],
            "type" : "VEC3"
        },
        {
            "bufferView" : 1,
            "componentType" : 5126,
            "count" : 168770,
            "type" : "VEC3"
        },
        {
            "bufferView" : 2,
            "componentType" : 5126,
            "count" : 168770,
            "type" : "VEC2"
        },
        {
            "bufferView" : 3,
            "componentType" : 5125,
            "count" : 765456,
            "type" : "SCALAR"
        },
        {
            "bufferView" : 4,
            "componentType" : 5126,
            "count" : 3005,
            "max" : [
                7.041236877441406,
                5.548409461975098,
                3.2495129108428955
            ],
            "min" : [
                -4.044370651245117,
                -1.7998778820037842,
                -3.1977293491363525
            ],
            "type" : "VEC3"
        },
        {
            "bufferView" : 5,
            "componentType" : 5126,
            "count" : 3005,
            "type" : "VEC3"
        },
        {
            "bufferView" : 6,
            "componentType" : 5126,
            "count" : 3005,
            "type" : "VEC2"
        },
        {
            "bufferView" : 7,
            "componentType" : 5123,
            "count" : 6183,
            "type" : "SCALAR"
        },
        {
            "bufferView" : 8,
            "componentType" : 5126,
            "count" : 1806,
            "max" : [
                7.055028915405273,
                5.548409461975098,
                3.2495129108428955
            ],
            "min" : [
                -4.044338226318359,
                -2.0309300422668457,
                -3.1977293491363525
            ],
            "type" : "VEC3"
        },
        {
            "bufferView" : 9,
            "componentType" : 5126,
            "count" : 1806,
            "type" : "VEC3"
        },
        {
            "bufferView" : 10,
            "componentType" : 5126,
            "count" : 1806,
            "type" : "VEC2"
        },
        {
            "bufferView" : 11,
            "componentType" : 5123,
            "count" : 5373,
            "type" : "SCALAR"
        }
    ],
    "bufferViews" : [
        {
            "buffer" : 0,
            "byteLength" : 2025240,
            "byteOffset" : 0
        },
        {
            "buffer" : 0,
            "byteLength" : 2025240,
            "byteOffset" : 2025240
        },
        {
            "buffer" : 0,
            "byteLength" : 1350160,
            "byteOffset" : 4050480
        },
        {
            "buffer" : 0,
            "byteLength" : 3061824,
            "byteOffset" : 5400640
        },
        {
            "buffer" : 0,
            "byteLength" : 36060,
            "byteOffset" : 8462464
        },
        {
            "buffer" : 0,
            "byteLength" : 36060,
            "byteOffset" : 8498524
        },
        {
            "buffer" : 0,
            "byteLength" : 24040,
            "byteOffset" : 8534584
        },
        {
            "buffer" : 0,
            "byteLength" : 12366,
            "byteOffset" : 8558624
        },
        {
            "buffer" : 0,
            "byteLength" : 21672,
            "byteOffset" : 8570992
        },
        {
            "buffer" : 0,
            "byteLength" : 21672,
            "byteOffset" : 8592664
        },
        {
            "buffer" : 0,
            "byteLength" : 14448,
            "byteOffset" : 8614336
        },
        {
            "buffer" : 0,
            "byteLength" : 10746,
            "byteOffset" : 8628784
        }
    ],
    "buffers" : [
        {
            "byteLength" : 8639532,
            "uri" : "memmert_test_offen_merged.bin"
        }
    ]
}
